<svg xmlns="http://www.w3.org/2000/svg" xmlns:xlink="http://www.w3.org/1999/xlink" version="1.1" width="1512" height="680"><g id="Context Diagram"><g id="Runs in parallel, ThreadPoolExecutor"><rect width="640" height="248" rx="8" ry="8" fill-opacity="0.1" fill="#ffffff" stroke-opacity="1" stroke-width="2" stroke="#4c5152" opacity="1" x="416" y="112"></rect><text font-family="IBM Plex Sans Medium, Arial, sans-serif" font-size="15" font-weight="500" fill="#ffffff" opacity="1" x="432" y="143.375"><tspan dy="0" x="432">Runs in parallel, ThreadPoolExecutor</tspan></text><g id="Group" opacity="1"><text font-family="Courier New, monospace" font-size="12" text-anchor="middle" fill="#adb3b3" x="736" y="348.6552734375"><tspan dy="0" x="736">Group</tspan></text></g></g><g id="Sends data to"><polyline points="288,148 312,148 326.41,149.27999999999997 336.81,152.87 343.86,158.39 348.24,165.45 350.61,173.66000000000003 351.64,182.64 352.36,201.36 353.39,210.33999999999997 355.76,218.55 360.14,225.61 367.19000000000005,231.13 377.59000000000003,234.72000000000003 392,236 416,236" fill="none" stroke-width="1" stroke="#adb3b3" opacity="1"></polyline></g><g id="Sends data to"><rect width="99.836" height="22.2" x="302.082" y="180.9" rx="4" ry="4" fill-opacity="0.8" fill="#323435" stroke-opacity="1" stroke-width="1" stroke="#434647" opacity="0.8"></rect><g opacity="1" fill="#e5e7e8"><text font-family="IBM Plex Sans Medium, Arial, sans-serif" font-size="14" text-anchor="middle" x="352" y="197.24999999999997"><tspan dy="0" x="352">Sends data to</tspan></text></g></g><g id="Sends data to"><polyline points="1056,236 1080,236 1095.23,235.07999999999998 1107.4,232.48000000000002 1116.91,228.42000000000002 1124.17,223.12 1129.6,216.81 1133.59,209.70999999999998 1136.56,202.05 1143.44,177.95 1146.41,170.29000000000002 1150.4,163.19 1155.83,156.88 1163.09,151.57999999999998 1172.6,147.51999999999998 1184.77,144.92000000000002 1200,144 1224,144" fill="none" stroke-width="1" stroke="#adb3b3" opacity="1"></polyline></g><g id="Sends data to"><rect width="99.836" height="22.2" x="1090.082" y="178.9" rx="4" ry="4" fill-opacity="0.8" fill="#323435" stroke-opacity="1" stroke-width="1" stroke="#434647" opacity="0.8"></rect><g opacity="1" fill="#e5e7e8"><text font-family="IBM Plex Sans Medium, Arial, sans-serif" font-size="14" text-anchor="middle" x="1140" y="195.24999999999997"><tspan dy="0" x="1140">Sends data to</tspan></text></g></g><g id="Sends data to"><polyline points="1352,208 1352,312" fill="none" stroke-width="1" stroke="#adb3b3" opacity="1"></polyline></g><g id="Sends data to"><rect width="99.836" height="22.2" x="1302.082" y="248.9" rx="4" ry="4" fill-opacity="0.8" fill="#323435" stroke-opacity="1" stroke-width="1" stroke="#434647" opacity="0.8"></rect><g opacity="1" fill="#e5e7e8"><text font-family="IBM Plex Sans Medium, Arial, sans-serif" font-size="14" text-anchor="middle" x="1352" y="265.25"><tspan dy="0" x="1352">Sends data to</tspan></text></g></g><g id="Sends data to"><polyline points="1352,440 1352,520" fill="none" stroke-width="1" stroke="#adb3b3" opacity="1"></polyline></g><g id="Sends data to"><rect width="99.836" height="22.2" x="1302.082" y="480.9" rx="4" ry="4" fill-opacity="0.8" fill="#323435" stroke-opacity="1" stroke-width="1" stroke="#434647" opacity="0.8"></rect><g opacity="1" fill="#e5e7e8"><text font-family="IBM Plex Sans Medium, Arial, sans-serif" font-size="14" text-anchor="middle" x="1352" y="497.25"><tspan dy="0" x="1352">Sends data to</tspan></text></g></g><g id="Sends data to"><polyline points="1224,584 1181.3,583.86 1162.07,582.96 1142.7,580.5 1088,580" fill="none" stroke-width="1" stroke="#adb3b3" opacity="1"></polyline></g><g id="Sends data to"><rect width="99.836" height="22.2" x="1106.0626157545794" y="571.0866450571123" rx="4" ry="4" fill-opacity="0.8" fill="#323435" stroke-opacity="1" stroke-width="1" stroke="#434647" opacity="0.8"></rect><g opacity="1" fill="#e5e7e8"><text font-family="IBM Plex Sans Medium, Arial, sans-serif" font-size="14" text-anchor="middle" x="1155.9806157545793" y="587.4366450571122"><tspan dy="0" x="1155.9806157545793">Sends data to</tspan></text></g></g><a href="https://app.icepanel.io/landscapes/ZoWNBiS1XzaXuWlR07gy/versions/latest/model/objects?object=PRARkrEhU2&amp;focus=PRARkrEhU2" id="Request" target="_blank"><rect width="56" height="56" rx="8" ry="8" fill-opacity="0.8" fill="#1f2121" stroke-opacity="1" stroke-width="1" stroke="#434647" opacity="1" x="132" y="32"></rect><rect width="256" height="96" rx="8" ry="8" fill-opacity="0.8" fill="#1f2121" stroke-opacity="1" stroke-width="1" stroke="#434647" opacity="1" x="32" y="96"></rect><path d="M160 61.714285714285715C163.7875 61.714285714285715 166.85714285714286 58.644642857142856 166.85714285714286 54.85714285714286C166.85714285714286 51.06964285714285 163.7875 48 160 48C156.2125 48 153.14285714285714 51.06964285714285 153.14285714285714 54.85714285714286C153.14285714285714 58.644642857142856 156.2125 61.714285714285715 160 61.714285714285715ZM164.8 63.42857142857143L163.90535714285716 63.42857142857143C162.71607142857144 63.974999999999994 161.39285714285714 64.28571428571428 160 64.28571428571428C158.60714285714286 64.28571428571428 157.2892857142857 63.974999999999994 156.09464285714284 63.42857142857143L155.2 63.42857142857143C151.225 63.42857142857143 148 66.65357142857142 148 70.62857142857143L148 72.85714285714286C148 74.27678571428571 149.15178571428572 75.42857142857143 150.57142857142856 75.42857142857143L169.42857142857142 75.42857142857143C170.84821428571428 75.42857142857143 172 74.27678571428571 172 72.85714285714286L172 70.62857142857143C172 66.65357142857142 168.775 63.42857142857143 164.8 63.42857142857143Z " fill="#ffffff" opacity="1"></path><text font-family="IBM Plex Sans Medium, Arial, sans-serif" font-size="24" font-weight="500" text-anchor="middle" fill="#ffffff" opacity="1" x="160" y="134.33333333333334"><tspan dy="0" x="160">Request</tspan></text><g opacity="1"><text font-family="IBM Plex Sans, Arial, sans-serif" font-size="14" text-anchor="middle" fill="#adb3b3" x="160" y="161.58333333333337"><tspan dy="0" x="160">POST /api/retrieve</tspan></text></g><g id="Actor" opacity="1"><text font-family="Courier New, monospace" font-size="12" text-anchor="middle" fill="#adb3b3" x="160" y="180.6552734375"><tspan dy="0" x="160">Actor</tspan></text></g></a><a href="https://app.icepanel.io/landscapes/ZoWNBiS1XzaXuWlR07gy/versions/latest/model/objects?object=tUXVNwlDq4&amp;focus=tUXVNwlDq4" id="Eligibility Scoring" target="_blank"><rect width="256" height="128" rx="8" ry="8" fill-opacity="0.8" fill="#1f2121" stroke-opacity="1" stroke-width="1" stroke="#434647" opacity="1" x="464" y="168"></rect><text font-family="IBM Plex Sans Medium, Arial, sans-serif" font-size="24" font-weight="500" text-anchor="middle" fill="#ffffff" opacity="1" x="592" y="236.99999999999997"><tspan dy="0" x="592">Eligibility Scoring</tspan></text><g id="System" opacity="1"><text font-family="Courier New, monospace" font-size="12" text-anchor="middle" fill="#adb3b3" x="592" y="284.6552734375"><tspan dy="0" x="592">System</tspan></text></g></a><a href="https://app.icepanel.io/landscapes/ZoWNBiS1XzaXuWlR07gy/versions/latest/model/objects?object=mcePeupU5s&amp;focus=mcePeupU5s" id="Embedding Generation" target="_blank"><rect width="256" height="128" rx="8" ry="8" fill-opacity="0.8" fill="#1f2121" stroke-opacity="1" stroke-width="1" stroke="#434647" opacity="1" x="752" y="168"></rect><text font-family="IBM Plex Sans Medium, Arial, sans-serif" font-size="24" font-weight="500" text-anchor="middle" fill="#ffffff" opacity="1" x="880" y="223.99999999999997"><tspan dy="0" x="880">Embedding</tspan></text><text font-family="IBM Plex Sans Medium, Arial, sans-serif" font-size="24" font-weight="500" text-anchor="middle" fill="#ffffff" opacity="1" x="879.9999999999999" y="250"><tspan dy="0" x="879.9999999999999">Generation</tspan></text><g id="System" opacity="1"><text font-family="Courier New, monospace" font-size="12" text-anchor="middle" fill="#adb3b3" x="880" y="284.6552734375"><tspan dy="0" x="880">System</tspan></text></g></a><a href="https://app.icepanel.io/landscapes/ZoWNBiS1XzaXuWlR07gy/versions/latest/model/objects?object=Tts5ykgyFg&amp;focus=Tts5ykgyFg" id="Category Matching" target="_blank"><rect width="256" height="128" rx="8" ry="8" fill-opacity="0.8" fill="#1f2121" stroke-opacity="1" stroke-width="1" stroke="#434647" opacity="1" x="1224" y="80"></rect><text font-family="IBM Plex Sans Medium, Arial, sans-serif" font-size="24" font-weight="500" text-anchor="middle" fill="#ffffff" opacity="1" x="1352" y="131"><tspan dy="0" x="1352">Category Matching</tspan></text><g opacity="1"><text font-family="IBM Plex Sans, Arial, sans-serif" font-size="14" text-anchor="middle" fill="#adb3b3" x="1351.9999999999998" y="165.24999999999997"><tspan dy="0" x="1351.9999999999998">cosine similarity vs 100 categories</tspan></text></g><g id="System" opacity="1"><text font-family="Courier New, monospace" font-size="12" text-anchor="middle" fill="#adb3b3" x="1352" y="196.6552734375"><tspan dy="0" x="1352">System</tspan></text></g></a><a href="https://app.icepanel.io/landscapes/ZoWNBiS1XzaXuWlR07gy/versions/latest/model/objects?object=eySpxVSmN0&amp;focus=eySpxVSmN0" id="FAISS Similarity Search" target="_blank"><rect width="256" height="128" rx="8" ry="8" fill-opacity="0.8" fill="#1f2121" stroke-opacity="1" stroke-width="1" stroke="#434647" opacity="1" x="1224" y="312"></rect><text font-family="IBM Plex Sans Medium, Arial, sans-serif" font-size="22" font-weight="500" text-anchor="middle" fill="#ffffff" opacity="1" x="1352" y="362.25000000000006"><tspan dy="0" x="1352">FAISS Similarity Search</tspan></text><g opacity="1"><text font-family="IBM Plex Sans, Arial, sans-serif" font-size="14" text-anchor="middle" fill="#adb3b3" x="1351.9999999999998" y="397.25"><tspan dy="0" x="1351.9999999999998">Top 2000 candidates</tspan></text></g><g id="System" opacity="1"><text font-family="Courier New, monospace" font-size="12" text-anchor="middle" fill="#adb3b3" x="1352" y="428.6552734375"><tspan dy="0" x="1352">System</tspan></text></g></a><a href="https://app.icepanel.io/landscapes/ZoWNBiS1XzaXuWlR07gy/versions/latest/model/objects?object=KiJN83IY6T&amp;focus=KiJN83IY6T" id="Re-ranking with User Context" target="_blank"><rect width="256" height="128" rx="8" ry="8" fill-opacity="0.8" fill="#1f2121" stroke-opacity="1" stroke-width="1" stroke="#434647" opacity="1" x="1224" y="520"></rect><text font-family="IBM Plex Sans Medium, Arial, sans-serif" font-size="18" font-weight="500" text-anchor="middle" fill="#ffffff" opacity="1" x="1352.0000000000002" y="568.75"><tspan dy="0" x="1352.0000000000002">Re-ranking with User Context</tspan></text><g opacity="1"><text font-family="IBM Plex Sans, Arial, sans-serif" font-size="14" text-anchor="middle" fill="#adb3b3" x="1352" y="605.2500000000001"><tspan dy="0" x="1352">(location/age/interest boosting)</tspan></text></g><g id="System" opacity="1"><text font-family="Courier New, monospace" font-size="12" text-anchor="middle" fill="#adb3b3" x="1352" y="636.6552734375"><tspan dy="0" x="1352">System</tspan></text></g></a><a href="https://app.icepanel.io/landscapes/ZoWNBiS1XzaXuWlR07gy/versions/latest/model/objects?object=gZ06SjYoBq&amp;focus=gZ06SjYoBq" id="Response" target="_blank"><rect width="56" height="56" rx="8" ry="8" fill-opacity="0.8" fill="#1f2121" stroke-opacity="1" stroke-width="1" stroke="#434647" opacity="1" x="932" y="464"></rect><rect width="256" height="96" rx="8" ry="8" fill-opacity="0.8" fill="#1f2121" stroke-opacity="1" stroke-width="1" stroke="#434647" opacity="1" x="832" y="528"></rect><path d="M960 493.7142857142857C963.7875 493.7142857142857 966.8571428571429 490.64464285714286 966.8571428571429 486.85714285714283C966.8571428571429 483.06964285714287 963.7875 480 960 480C956.2125 480 953.1428571428571 483.06964285714287 953.1428571428571 486.85714285714283C953.1428571428571 490.64464285714286 956.2125 493.7142857142857 960 493.7142857142857ZM964.8 495.42857142857144L963.9053571428572 495.42857142857144C962.7160714285715 495.975 961.3928571428571 496.2857142857143 960 496.2857142857143C958.6071428571429 496.2857142857143 957.2892857142857 495.975 956.0946428571428 495.42857142857144L955.2 495.42857142857144C951.225 495.42857142857144 948 498.6535714285714 948 502.62857142857143L948 504.85714285714283C948 506.2767857142857 949.1517857142857 507.42857142857144 950.5714285714286 507.42857142857144L969.4285714285714 507.42857142857144C970.8482142857142 507.42857142857144 972 506.2767857142857 972 504.85714285714283L972 502.62857142857143C972 498.6535714285714 968.775 495.42857142857144 964.8 495.42857142857144Z " fill="#ffffff" opacity="1"></path><text font-family="IBM Plex Sans Medium, Arial, sans-serif" font-size="24" font-weight="500" text-anchor="middle" fill="#ffffff" opacity="1" x="960" y="566.3333333333333"><tspan dy="0" x="960">Response</tspan></text><g opacity="1"><text font-family="IBM Plex Sans, Arial, sans-serif" font-size="14" text-anchor="middle" fill="#adb3b3" x="960" y="593.5833333333333"><tspan dy="0" x="960">Top 1000 campaigns in JSON format</tspan></text></g><g id="Actor" opacity="1"><text font-family="Courier New, monospace" font-size="12" text-anchor="middle" fill="#adb3b3" x="960" y="612.6552734375"><tspan dy="0" x="960">Actor</tspan></text></g></a><g id="Sends data to"><polygon points="408,164 400,180 416,180 408,164" fill="#adb3b3" opacity="1" transform="matrix(6.123233995736766e-17,1,-1,6.123233995736766e-17,580,-172)"></polygon><circle r="4" fill="#adb3b3" opacity="1" cx="288" cy="148"></circle></g><g id="Sends data to"><polygon points="1216,71.99999999999994 1208,87.99999999999994 1224,87.99999999999994 1216,71.99999999999994" fill="#adb3b3" opacity="1" transform="matrix(6.123233995736766e-17,1,-1,6.123233995736766e-17,1296,-1072)"></polygon><circle r="4" fill="#adb3b3" opacity="1" cx="1056" cy="236"></circle></g><g id="Sends data to"><polygon points="1288,232 1280,248 1296,248 1288,232" fill="#adb3b3" opacity="1" transform="matrix(-1,1.2246467991473532e-16,-1.2246467991473532e-16,-1,2640,543.9999999999998)"></polygon><circle r="4" fill="#adb3b3" opacity="1" cx="1352" cy="208"></circle></g><g id="Sends data to"><polygon points="1288.0000000000002,440 1280.0000000000002,456 1296.0000000000002,456 1288.0000000000002,440" fill="#adb3b3" opacity="1" transform="matrix(-1,1.2246467991473532e-16,-1.2246467991473532e-16,-1,2640,959.9999999999998)"></polygon><circle r="4" fill="#adb3b3" opacity="1" cx="1352" cy="440"></circle></g><g id="Sends data to"><polygon points="1032.29349493205,572.3642786646351 1024.29349493205,588.3642786646351 1040.29349493205,588.3642786646351 1032.29349493205,572.3642786646351" fill="#adb3b3" opacity="1" transform="matrix(0.00914038597622996,-0.9999582257995608,0.9999582257995608,0.00914038597622996,506.22407041103577,1607.0187412706791)"></polygon><circle r="4" fill="#adb3b3" opacity="1" cx="1224" cy="584"></circle></g></g></svg>